<?xml version="1.0" standalone="no"?>
<!DOCTYPE svg PUBLIC "-//W3C//DTD SVG 20010904//EN"
 "http://www.w3.org/TR/2001/REC-SVG-20010904/DTD/svg10.dtd">
<svg version="1.0" xmlns="http://www.w3.org/2000/svg"
 width="831.000000pt" height="459.000000pt" viewBox="0 0 831.000000 459.000000"
 preserveAspectRatio="xMidYMid meet">

<g transform="translate(0.000000,459.000000) scale(0.100000,-0.100000)"
fill="#000000" stroke="none">
<path d="M740 3191 c0 -553 3 -595 56 -728 53 -134 161 -257 282 -321 197
-105 501 -103 679 5 160 96 245 210 306 408 20 67 21 92 25 608 l3 537 -65 0
-65 0 -4 -527 c-4 -583 -2 -569 -71 -708 -87 -176 -258 -277 -467 -277 -263 0
-450 141 -525 397 -16 53 -18 120 -21 588 l-4 527 -65 0 -64 0 0 -509z"/>
<path d="M2370 2890 l0 -810 65 0 65 0 2 710 3 711 294 -361 c162 -198 300
-365 306 -370 7 -6 106 108 310 359 l300 368 5 -706 5 -706 63 0 62 0 0 805 1
805 -64 3 -64 3 -303 -371 c-275 -336 -305 -369 -319 -355 -9 8 -147 174 -306
368 l-290 352 -68 3 -67 3 0 -811z"/>
<path d="M4172 2893 l3 -808 450 0 450 0 3 53 3 52 -384 0 c-299 0 -386 3
-390 13 -2 6 -4 152 -3 322 l1 310 368 3 367 2 0 55 0 55 -364 0 c-323 0 -365
2 -370 16 -3 9 -6 145 -6 304 0 159 3 295 6 304 5 14 48 16 380 16 l374 0 0
55 0 55 -445 0 -445 0 2 -807z"/>
<path d="M5280 2890 l0 -810 65 0 65 0 2 699 3 699 370 -425 c204 -234 478
-549 609 -700 l239 -274 51 3 51 3 3 808 2 808 -65 -3 -66 -3 0 -692 c0 -381
-3 -693 -7 -693 -4 0 -28 24 -53 53 -25 28 -225 259 -444 512 -220 253 -470
542 -558 643 l-158 182 -54 0 -55 0 0 -810z"/>
<path d="M7050 2890 l0 -810 65 0 65 0 0 810 0 810 -65 0 -65 0 0 -810z"/>
<path d="M5829 2349 c-58 -28 -146 -93 -193 -144 -45 -48 -101 -132 -206 -310
-62 -104 -148 -246 -190 -315 -43 -69 -89 -148 -103 -176 -31 -60 -167 -192
-230 -223 -90 -44 -129 -18 -101 66 19 58 72 170 116 246 29 52 35 57 68 58
28 0 31 2 15 8 -11 5 -24 6 -29 3 -5 -3 -7 1 -4 9 22 52 22 50 -8 38 -16 -5
-36 -17 -44 -24 -9 -8 -38 -19 -66 -25 -106 -23 -245 -143 -304 -264 -40 -81
-39 -129 3 -134 36 -4 98 32 165 99 l54 52 -16 -37 c-23 -55 -21 -123 3 -136
55 -29 160 15 265 111 l66 61 -7 -34 c-3 -18 -7 -35 -9 -36 -1 -2 2 -17 8 -33
7 -21 20 -32 48 -40 70 -21 170 17 276 107 l50 42 -10 -48 c-18 -90 38 -128
146 -96 68 19 220 117 205 132 -3 4 -25 -10 -48 -30 -81 -69 -191 -105 -218
-72 -22 26 -8 106 33 193 58 122 125 231 147 238 40 13 187 131 274 219 135
138 265 333 300 449 16 54 10 67 -26 67 -65 0 -222 -112 -298 -212 -36 -49
-367 -590 -447 -733 -43 -75 -138 -165 -217 -205 -148 -74 -185 -6 -97 177 85
178 111 214 201 273 175 115 374 337 471 525 57 111 68 159 40 174 -15 8 -33
4 -83 -20z m14 -43 c9 -23 -17 -116 -52 -186 -47 -92 -130 -202 -226 -296 -75
-73 -202 -170 -212 -160 -4 4 166 277 269 430 116 173 204 257 221 212z m364
-35 c-18 -153 -198 -402 -400 -553 -43 -32 -83 -58 -87 -58 -5 0 37 73 92 163
220 353 328 497 376 497 24 0 25 -2 19 -49z m-1338 -778 c-70 -125 -121 -189
-199 -255 -54 -47 -85 -51 -75 -10 34 139 193 320 283 322 23 0 23 0 -9 -57z"/>
<path d="M4235 1959 c-266 -39 -499 -253 -570 -524 -26 -103 -15 -164 39 -218
48 -48 84 -61 188 -65 73 -3 109 0 150 13 73 24 164 71 217 111 24 19 46 32
49 29 7 -7 -120 -225 -187 -320 -71 -102 -178 -208 -242 -241 -61 -30 -130
-40 -184 -25 -41 11 -60 6 -35 -9 8 -6 52 -10 97 -10 100 0 171 23 261 87 116
82 223 237 402 582 62 119 93 169 115 183 l30 20 -45 -6 c-25 -3 -97 -9 -160
-12 -124 -6 -144 -9 -136 -22 2 -4 42 -5 88 -1 46 4 87 4 92 -1 16 -16 -41
-114 -103 -177 -118 -122 -246 -186 -376 -187 -95 -1 -148 21 -177 75 -79 141
153 550 374 658 116 57 238 60 331 9 58 -33 82 -70 81 -124 0 -24 3 -44 8 -44
4 0 8 1 8 3 0 1 11 35 25 75 14 41 22 78 19 83 -12 19 -84 49 -145 59 -73 11
-129 11 -214 -1z"/>
<path d="M6842 1533 c-17 -27 -53 -91 -82 -143 -68 -127 -112 -170 -171 -170
-19 0 -21 4 -16 35 3 19 35 83 71 142 89 149 91 156 34 134 -22 -8 -137 -177
-165 -244 -39 -90 19 -125 120 -72 l47 25 -43 -72 c-235 -396 -407 -599 -573
-678 -145 -68 -280 -40 -301 62 -8 40 -23 24 -23 -25 0 -74 52 -117 143 -117
140 0 310 106 452 283 67 83 206 286 325 475 36 57 91 138 124 180 97 127 129
181 122 208 -10 37 -31 29 -64 -23z"/>
<path d="M6031 1558 c-43 -12 -160 -126 -190 -185 -12 -24 -25 -43 -30 -43 -4
0 -8 -31 -7 -70 1 -89 15 -102 101 -97 69 4 149 36 212 84 24 18 45 33 47 33
3 0 -6 -20 -20 -44 -23 -40 -23 -45 -9 -60 9 -9 18 -16 20 -16 2 0 32 48 67
107 110 186 217 272 284 228 22 -14 28 -15 36 -4 36 55 33 69 -16 69 -31 0
-99 -38 -178 -100 l-27 -21 25 46 c14 25 23 52 20 60 -6 16 -46 21 -46 6 0
-25 -111 -201 -154 -243 -53 -53 -173 -118 -216 -118 -47 0 -73 30 -73 81 1
25 8 61 16 81 14 32 19 35 67 41 57 7 120 42 144 79 24 40 28 65 11 82 -18 18
-34 19 -84 4z m34 -18 c12 -19 -7 -70 -36 -100 -27 -27 -92 -50 -105 -37 -12
12 9 48 54 96 46 49 74 62 87 41z"/>
</g>
</svg>
